<svg width="451" height="191" fill="none" xmlns="http://www.w3.org/2000/svg"><path fill-rule="evenodd" clip-rule="evenodd" d="M318.679 167.754h-.987s-36.167-.206-38.698 0c-1.58.129-2.215 1.798-2.938 3.696-.435 1.143-.902 2.367-1.624 3.389H261.32a.614.614 0 01-.613-.613V49.487c0-.338.275-.613.613-.613h141.381c.339 0 .613.274.613.613v124.738a.612.612 0 01-.613.613h-14.963c-.089-3.207-2.446-6.578-4.737-7.034-.83-.165-24.709-.129-43.13-.075a.62.62 0 01-.174.025h-7.724c-7.789.026-13.294.05-13.294.05v-.05z" fill="#CA7B27"/><path d="M318.679 167.754h.953v-.953h-.953v.953zm-.987 0l-.006.953h.006v-.953zm-38.698 0l-.077-.95.077.95zm-2.938 3.696l-.891-.339.891.339zm-1.624 3.389v.953h.493l.285-.402-.778-.551zm44.831-125.965v.953h.045l-.045-.953zm68.475 125.964l-.953.027.026.927h.927v-.954zm-4.737-7.034l.186-.935-.186.935zm-43.13-.075l-.003-.953h-.136l-.13.038.269.915zm-7.898.025v-.953h-.004l.004.953zm-13.294.05h-.953v.957l.957-.004-.004-.953zm0-1.003h-.987v1.906h.987v-1.906zm-.987.953l.005-.953h-.006l-.02-.001h-.078l-.303-.002-1.152-.006-4.132-.02c-3.431-.016-8.031-.036-12.711-.049-9.318-.025-19.06-.027-20.378.081l.155 1.9c1.212-.099 10.819-.1 20.218-.074 4.678.013 9.277.032 12.707.048l4.131.021 1.152.006.303.002H317.686l.006-.953zm-38.775-.95c-1.18.096-1.963.79-2.507 1.606-.518.779-.896 1.783-1.245 2.701l1.782.679c.373-.981.675-1.76 1.05-2.323.35-.525.674-.73 1.075-.763l-.155-1.9zm-3.752 4.307c-.443 1.164-.871 2.271-1.511 3.177l1.556 1.102c.804-1.138 1.31-2.48 1.737-3.6l-1.782-.679zm-.733 2.775H261.32v1.906h13.112v-1.906zm-13.112 0a.34.34 0 01.34.34h-1.906c0 .865.701 1.566 1.566 1.566v-1.906zm.34.34V49.487h-1.906v124.739h1.906zm0-124.739a.34.34 0 01-.34.34v-1.906c-.865 0-1.566.701-1.566 1.566h1.906zm-.34.34h57.943v-1.906H261.32v1.906zm57.988 0h-.016V47.92c-.024 0-.049 0-.073.002l.089 1.904zm-.016 0h83.409V47.92h-83.409v1.907zm83.409 0a.34.34 0 01-.34-.34h1.907c0-.866-.702-1.567-1.567-1.567v1.907zm-.34-.34v124.738h1.907V49.487h-1.907zm0 124.738a.34.34 0 01.34-.34v1.907c.865 0 1.567-.702 1.567-1.567h-1.907zm.34-.34h-14.963v1.907h14.963v-1.907zm-14.01.927c-.05-1.814-.735-3.633-1.708-5.06-.956-1.401-2.304-2.586-3.796-2.883l-.372 1.87c.799.159 1.775.888 2.593 2.087.8 1.175 1.338 2.645 1.377 4.039l1.906-.053zm-5.504-7.943a4.169 4.169 0 00-.567-.046c-.235-.01-.55-.018-.937-.025-.774-.015-1.851-.027-3.174-.036-2.646-.019-6.287-.029-10.476-.031-8.378-.005-18.954.018-28.165.045l.005 1.906c9.211-.026 19.785-.049 28.159-.044 4.188.002 7.824.011 10.464.03 1.32.01 2.388.022 3.151.036.382.007.682.015.898.024.258.01.31.019.27.011l.372-1.87zm-43.585-.055a.34.34 0 01.095-.013v1.906c.153 0 .301-.022.443-.063l-.538-1.83zm.095-.013h-7.724v1.906h7.724v-1.906zm-7.728 0l-9.568.034-2.744.011-.73.003-.188.001h-.06l-.003.001h-.001l.004.953.004.953h.064l.188-.001.73-.003 2.744-.011c2.349-.009 5.673-.022 9.567-.035l-.007-1.906zm-12.337 1.003v-.05h-1.906v.05h1.906z" fill="#1C1E36"/><ellipse cx="296.391" cy="96.338" rx="1.83" ry="1.826" fill="#94580F"/><ellipse cx="303.711" cy="96.338" rx="1.83" ry="1.826" fill="#94580F"/><rect x="266.197" y="56.176" width="27.45" height="79.413" rx="1.227" fill="#D9E2FB"/><path fill-rule="evenodd" clip-rule="evenodd" d="M287.3 155.545l-.071.001-.071-.001h-6.261l-.073.001-.072-.001h-.536a.307.307 0 01-.299-.238 1.826 1.826 0 01.907-3.412c1.011 0 1.83.817 1.83 1.825h2.745a1.829 1.829 0 011.83-1.825 1.824 1.824 0 01.908 3.411.307.307 0 01-.299.239h-.538z" fill="#94580F"/><rect x="307.371" y="56.176" width="27.45" height="79.413" rx="1.227" fill="#D9E2FB" stroke="#1C1E36" stroke-width="2"/><path d="M300.051 48.874v92.648h-39.344 79.604" stroke="#AC6814" stroke-width=".846"/><mask id="a" fill="#fff"><rect x="290.207" y="147.603" width="34.471" height="12.878" rx="1.227"/></mask><rect x="290.207" y="147.603" width="34.471" height="12.878" rx="1.227" fill="#FAC775" stroke="#1C1E36" stroke-width="4" mask="url(#a)"/><mask id="b" fill="#fff"><rect x="326.832" y="147.603" width="34.471" height="12.878" rx="1.227"/></mask><rect x="326.832" y="147.603" width="34.471" height="12.878" rx="1.227" fill="#FAC775" stroke="#1C1E36" stroke-width="4" mask="url(#b)"/><mask id="c" fill="#fff"><rect x="363.458" y="147.603" width="34.471" height="12.878" rx="1.227"/></mask><rect x="363.458" y="147.603" width="34.471" height="12.878" rx="1.227" fill="#FAC775" stroke="#1C1E36" stroke-width="4" mask="url(#c)"/><ellipse cx="357.691" cy="96.375" rx="1.833" ry="1.826" fill="#94580F"/><ellipse cx="367.534" cy="96.375" rx="1.833" ry="1.826" fill="#94580F"/><rect x="329.098" y="56.175" width="22.968" height="79.413" rx="1.227" fill="#D9E2FB" stroke="#1C1E36" stroke-width="2"/><rect x="373.209" y="56.175" width="24.608" height="79.413" rx="1.227" fill="#D9E2FB" stroke="#1C1E36" stroke-width="2"/><path fill="#002A78" fill-opacity=".12" d="M252.504 66.043h28.008v1.073h-28.008z"/><ellipse cx="266.508" cy="95.019" rx="7.54" ry="7.512" fill="#fff"/><ellipse cx="266.508" cy="95.019" rx="5.386" ry="5.366" fill="#ECECEC"/><path fill="#002A78" fill-opacity=".12" d="M293.438 66.043h28.008v1.073h-28.008zM328.987 66.043h28.008v1.073h-28.008zM252.504 82.141h28.008v1.073h-28.008zM252.504 102.53h28.008v1.073h-28.008zM252.504 120.774h28.008v1.073h-28.008z"/><path d="M362.999 48.873v92.649h-63.053 103.368" stroke="#1C1E36" stroke-width="2"/><path d="M320.885 80.44l-7.278 15.43 10.184.482-.298 6.672 4.898-8.087-7.482-2.94c3.569-2.587 4.017-7.86.909-10.703l-.933-.853z" fill="#99E28F"/><path d="M303.738 74.669l11.845 7.484 1.56 23.774a3.199 3.199 0 01-1.036 2.572L303.9 119.67a3.165 3.165 0 00.671 5.147 4.445 4.445 0 012.354 3.381l.373 2.943-12.077-3.101.201-11.889 7.49-11.808-9.705-12.589c.001 0 1.604-9.28 10.531-17.085z" fill="#93CE89"/><path d="M368.105 90.317l-4.412-4.106s-5.38 7.648-9.534 5.41c-4.153-2.24-20.64-17.466-20.64-17.466-.404.335-.796.683-1.178 1.038-10.329 9.605-12.57 25.713-12.57 25.713-5.171 5.591-16.887 10.908-16.887 10.908-24.958-1.859-61.827-20.822-61.827-20.822s.003.002.01.001c20.178.612 47.483-19.683 47.483-19.683 28.477-29.858 37.96-51.051 53.544-44.147 15.584 6.904 40.26 26.687 38.702 37.725-1.558 11.037-12.691 25.43-12.691 25.43z" fill="#88D17E" stroke="#1C1E36" stroke-width="2"/><path d="M319.491 99.728c-5.151 5.529-16.85 10.758-16.85 10.758-24.976-1.945-61.938-20.913-61.938-20.913h.01c.865.078 56.282 4.96 60.454 3.89 10.98-3.226 23.702-25.211 23.702-25.211l7.092 6.008c-10.294 9.491-12.47 25.468-12.47 25.468z" fill="#72BA81"/><path d="M297.453 71.475s-7.796 1.528-15.551 14.893l3.86 6.716 3.831.172 7.86-21.781z" fill="#72BA81"/><path d="M299.306 71.39l10.817 9.644-2.451 24.457a3.294 3.294 0 01-1.495 2.441l-14.359 9.275c-1.911 1.235-2.009 3.98-.19 5.353a4.59 4.59 0 011.828 3.843l-.12 3.058-11.799-5.224 2.227-12.062 9.653-10.732-7.765-14.471s3.216-9.169 13.654-15.581z" fill="#85CF7B"/><path d="M363.104 86.96l-18.805-23.51-.125-5.034s-2.345-1.17-2.391.155c-.035.998.95 7.05.95 7.05s13.321 14.195 17.473 23.094l2.898-1.756zM333.135 74.115l-7.726-10.501 7.158-18.96-10.14 21.29s4.805 6.366 8.572 10.158l2.136-1.987z" fill="#72BA81"/><path d="M314.579 73.75l2.529 16.542 9.442-4.957 3.655 5.655-.35-9.24-8.458 1.511c1.688-4.007-1.011-8.59-5.477-9.298l-1.341-.213z" fill="#99E28F"/><ellipse rx="4.098" ry="4.083" transform="matrix(.9144 .40482 -.40866 .91269 351.933 48.552)" fill="#1C1E36"/><ellipse rx=".819" ry=".816" transform="matrix(.9144 .40481 -.40867 .91268 351.932 48.552)" fill="#fff"/><path d="M358.801 79.313a9.717 9.717 0 01-.733.789c-1.5 1.465-3.553 2.743-3.553 2.743-.168-2.047.909-4.15 1.618-5.292.34-.544.595-.872.595-.872l2.073 2.632zM354.254 75.889l-.591.403-1.707 1.159c.019-.516.513-1.62.866-2.345.197-.404.349-.69.349-.69l1.083 1.473zM361.055 83.85l-.772.524-1.527 1.038c.016-.465.422-1.411.761-2.123.245-.518.454-.911.454-.911l1.084 1.472z" fill="#fff"/><ellipse rx="3.278" ry="3.266" transform="matrix(.9144 .40482 -.40866 .91269 342.873 39.323)" fill="#72BA81"/><ellipse rx="1.639" ry="1.633" transform="matrix(.9144 .40483 -.40865 .9127 338.981 33.585)" fill="#72BA81"/><ellipse rx=".819" ry=".816" transform="matrix(.9144 .40483 -.40865 .9127 344.506 43.792)" fill="#72BA81"/><ellipse rx=".819" ry=".816" transform="matrix(.9144 .40483 -.40865 .9127 326.479 41.97)" fill="#72BA81"/><ellipse rx=".819" ry=".816" transform="matrix(.9144 .40483 -.40865 .9127 334.173 36.81)" fill="#72BA81"/><ellipse rx="1.639" ry="1.633" transform="matrix(.9144 .40482 -.40866 .91269 335.493 42.882)" fill="#72BA81"/><path d="M314.167 73.433l-2.324 11.472 2.195-3.164.129-8.308z" fill="#72BA81"/><path fill-rule="evenodd" clip-rule="evenodd" d="M33.443 127.358l281.569 1.107-5.518 31.779-276.051 1.222v-34.108z" fill="#282C34"/><g filter="url(#filter0_d)"><ellipse cx="59.055" cy="161.796" rx="23.808" ry="23.673" fill="#0F1C35"/><ellipse cx="59.055" cy="161.799" rx="14.108" ry="14.029" fill="#E7EAED"/><ellipse cx="58.707" cy="161.451" rx="3.609" ry="3.589" fill="#0F1C35" fill-opacity=".868"/><g opacity=".58"><mask id="d" fill="#fff"><ellipse cx="58.707" cy="154.274" rx="1.805" ry="1.795"/></mask><ellipse cx="58.707" cy="154.274" rx="1.805" ry="1.795" fill="#D8D8D8"/><path d="M58.65 154.274c0-.007.002-.019.007-.03a.063.063 0 01.014-.021.044.044 0 01.017-.012.07.07 0 01.02-.004v3.724a3.662 3.662 0 003.666-3.657H58.65zm.057-.067c.003 0 .011.001.02.004a.044.044 0 01.017.012.08.08 0 01.02.051h-3.723a3.662 3.662 0 003.666 3.657v-3.724zm.058.067a.08.08 0 01-.02.051.044.044 0 01-.018.012.071.071 0 01-.02.004v-3.724a3.662 3.662 0 00-3.666 3.657h3.724zm-.058.067a.07.07 0 01-.02-.004.044.044 0 01-.017-.012.063.063 0 01-.013-.021.082.082 0 01-.007-.03h3.724a3.662 3.662 0 00-3.667-3.657v3.724z" fill="#979797" mask="url(#d)"/><mask id="e" fill="#fff"><ellipse cx="65.925" cy="161.452" rx="1.805" ry="1.795"/></mask><ellipse cx="65.925" cy="161.452" rx="1.805" ry="1.795" fill="#D8D8D8"/><path d="M65.868 161.452c0-.007.002-.018.007-.03a.063.063 0 01.013-.021.056.056 0 01.018-.011.052.052 0 01.02-.005v3.724a3.661 3.661 0 003.666-3.657h-3.724zm.057-.067c.003 0 .011.001.02.005a.056.056 0 01.017.011c.004.004.01.011.014.021a.084.084 0 01.007.03h-3.724a3.661 3.661 0 003.666 3.657v-3.724zm.058.067a.076.076 0 01-.02.052.056.056 0 01-.018.011.052.052 0 01-.02.005v-3.724a3.661 3.661 0 00-3.666 3.656h3.724zm-.058.068a.052.052 0 01-.02-.005.056.056 0 01-.017-.011.076.076 0 01-.02-.052h3.724a3.661 3.661 0 00-3.667-3.656v3.724z" fill="#979797" mask="url(#e)"/><mask id="f" fill="#fff"><ellipse cx="64.121" cy="166.835" rx="1.805" ry="1.795"/></mask><ellipse cx="64.121" cy="166.835" rx="1.805" ry="1.795" fill="#D8D8D8"/><path d="M64.063 166.835c0-.007.002-.018.007-.03a.063.063 0 01.014-.021.056.056 0 01.017-.011.052.052 0 01.02-.005v3.724a3.661 3.661 0 003.666-3.657h-3.724zm.058-.067c.003 0 .01.001.019.005a.055.055 0 01.017.011c.005.004.01.011.014.021a.084.084 0 01.007.03h-3.724a3.661 3.661 0 003.667 3.657v-3.724zm.057.067a.076.076 0 01-.02.052.055.055 0 01-.018.011.052.052 0 01-.02.005v-3.724a3.661 3.661 0 00-3.666 3.656h3.724zm-.057.068a.052.052 0 01-.02-.005.056.056 0 01-.017-.011.076.076 0 01-.02-.052h3.723a3.661 3.661 0 00-3.666-3.656v3.724z" fill="#979797" mask="url(#f)"/><mask id="g" fill="#fff"><ellipse cx="58.707" cy="168.629" rx="1.805" ry="1.795"/></mask><ellipse cx="58.707" cy="168.629" rx="1.805" ry="1.795" fill="#D8D8D8"/><path d="M58.65 168.629c0-.007.002-.019.007-.03a.063.063 0 01.014-.021.055.055 0 01.017-.011.052.052 0 01.02-.005v3.724a3.662 3.662 0 003.666-3.657H58.65zm.057-.067c.003 0 .011.001.02.005a.055.055 0 01.017.011.08.08 0 01.02.051h-3.723a3.662 3.662 0 003.666 3.657v-3.724zm.058.067a.077.077 0 01-.007.03.07.07 0 01-.014.022.055.055 0 01-.017.011.053.053 0 01-.02.005v-3.724a3.661 3.661 0 00-3.666 3.656h3.724zm-.058.068a.052.052 0 01-.02-.005.055.055 0 01-.017-.011c-.004-.005-.009-.011-.013-.022a.078.078 0 01-.007-.03h3.724a3.661 3.661 0 00-3.667-3.656v3.724z" fill="#979797" mask="url(#g)"/><mask id="h" fill="#fff"><ellipse cx="53.293" cy="166.835" rx="1.805" ry="1.795"/></mask><ellipse cx="53.293" cy="166.835" rx="1.805" ry="1.795" fill="#D8D8D8"/><path d="M53.236 166.835c0-.007.002-.018.007-.03a.063.063 0 01.013-.021.055.055 0 01.018-.011.053.053 0 01.02-.005v3.724a3.661 3.661 0 003.666-3.657h-3.724zm.057-.067c.003 0 .011.001.02.005a.055.055 0 01.017.011c.005.004.01.011.014.021a.086.086 0 01.007.03h-3.724a3.662 3.662 0 003.666 3.657v-3.724zm.058.067a.087.087 0 01-.007.031c-.004.01-.01.016-.014.021a.055.055 0 01-.017.011.052.052 0 01-.02.005v-3.724a3.661 3.661 0 00-3.666 3.656h3.724zm-.058.068a.053.053 0 01-.02-.005.055.055 0 01-.017-.011.076.076 0 01-.013-.021.085.085 0 01-.007-.031h3.724a3.661 3.661 0 00-3.667-3.656v3.724z" fill="#979797" mask="url(#h)"/><mask id="i" fill="#fff"><ellipse cx="53.293" cy="156.068" rx="1.805" ry="1.795"/></mask><ellipse cx="53.293" cy="156.068" rx="1.805" ry="1.795" fill="#D8D8D8"/><path d="M53.236 156.068c0-.008.002-.019.007-.03a.07.07 0 01.013-.022.055.055 0 01.018-.011.053.053 0 01.02-.005v3.724a3.661 3.661 0 003.666-3.656h-3.724zm.057-.068c.003 0 .011.001.02.005a.055.055 0 01.017.011c.005.005.01.011.014.022a.078.078 0 01.007.03h-3.724a3.661 3.661 0 003.666 3.656V156zm.058.068a.082.082 0 01-.007.03.063.063 0 01-.014.021.055.055 0 01-.017.011.052.052 0 01-.02.005v-3.724a3.662 3.662 0 00-3.666 3.657h3.724zm-.058.067a.053.053 0 01-.02-.005.055.055 0 01-.017-.011.08.08 0 01-.02-.051h3.724a3.662 3.662 0 00-3.667-3.657v3.724z" fill="#979797" mask="url(#i)"/><mask id="j" fill="#fff"><ellipse cx="51.489" cy="161.452" rx="1.805" ry="1.795"/></mask><ellipse cx="51.489" cy="161.452" rx="1.805" ry="1.795" fill="#D8D8D8"/><path d="M51.431 161.452c0-.007.002-.018.007-.03a.063.063 0 01.014-.021.055.055 0 01.017-.011.053.053 0 01.02-.005v3.724a3.661 3.661 0 003.666-3.657h-3.724zm.058-.067c.003 0 .01.001.02.005a.055.055 0 01.017.011c.004.004.01.011.013.021a.086.086 0 01.007.03h-3.724a3.661 3.661 0 003.667 3.657v-3.724zm.057.067a.087.087 0 01-.007.031.074.074 0 01-.013.021.055.055 0 01-.018.011.052.052 0 01-.02.005v-3.724a3.661 3.661 0 00-3.666 3.656h3.724zm-.057.068a.053.053 0 01-.02-.005.055.055 0 01-.017-.011.076.076 0 01-.014-.021.085.085 0 01-.007-.031h3.724a3.661 3.661 0 00-3.666-3.656v3.724z" fill="#979797" mask="url(#j)"/><mask id="k" fill="#fff"><ellipse cx="64.121" cy="156.068" rx="1.805" ry="1.795"/></mask><ellipse cx="64.121" cy="156.068" rx="1.805" ry="1.795" fill="#D8D8D8"/><path d="M64.063 156.068c0-.008.002-.019.007-.03a.07.07 0 01.014-.022.056.056 0 01.017-.011.052.052 0 01.02-.005v3.724a3.661 3.661 0 003.666-3.656h-3.724zm.058-.068c.003 0 .01.001.019.005a.055.055 0 01.017.011.07.07 0 01.014.022.076.076 0 01.007.03h-3.724a3.661 3.661 0 003.667 3.656V156zm.057.068a.08.08 0 01-.02.051.055.055 0 01-.018.011.052.052 0 01-.02.005v-3.724a3.662 3.662 0 00-3.666 3.657h3.724zm-.057.067a.052.052 0 01-.02-.005.056.056 0 01-.017-.011.063.063 0 01-.014-.021.082.082 0 01-.007-.03h3.724a3.662 3.662 0 00-3.666-3.657v3.724z" fill="#979797" mask="url(#k)"/></g><path fill-rule="evenodd" clip-rule="evenodd" d="M12.204 140.373c.755-.735 1.535-24.747 12.29-28.269 10.754-3.522 6.092-1.536 14.955-5.272 8.864-3.735 42.494-42.28 53.546-42.28h31.942l-.444 61.276 190.929.542a2.642 2.642 0 012.633 2.699l-.138 6.428c2.547.863.196 4.876.196 4.876s-2.259 17.141-8.889 19.894c-1.158 1.268 1.113-24.77-25.69-24.77s-25.477 28.388-25.477 28.388l-171.84-1.714s-2.843-26.083-26.65-26.083c-23.808 0-25.822 26.083-25.822 26.083s-22.354.5-25.356-1.904c-3.002-2.405-.239-17.093 0-18.406.239-1.313 3.06-.753 3.815-1.488z" fill="#F4F8FF" stroke="#1C1E36" stroke-width="2.207"/><mask id="l" maskUnits="userSpaceOnUse" x="6" y="63" width="315" height="102"><path fill-rule="evenodd" clip-rule="evenodd" d="M12.204 140.373c.755-.735 1.535-24.747 12.29-28.269 10.754-3.522 6.092-1.536 14.955-5.272 8.864-3.735 42.494-42.28 53.546-42.28h31.942l-.444 61.276 190.929.542a2.642 2.642 0 012.633 2.699l-.138 6.428c2.547.863.196 4.876.196 4.876s-2.259 17.141-8.889 19.894c-1.158 1.268 1.113-24.77-25.69-24.77s-25.477 28.388-25.477 28.388l-171.84-1.714s-2.843-26.083-26.65-26.083c-23.808 0-25.822 26.083-25.822 26.083s-22.354.5-25.356-1.904c-3.002-2.405-.239-17.093 0-18.406.239-1.313 3.06-.753 3.815-1.488z" fill="#fff" stroke="#fff" stroke-width="2"/></mask><g mask="url(#l)"><path fill-rule="evenodd" clip-rule="evenodd" d="M7.4 144.907H315.8c.691 0 1.196.651 1.024 1.32l-3.021 11.73c-1.483.743-4.128 1.184-5.032 0H41.42c-1.675 0-6.172 2.929-6.172 2.929-10.396 4.44-24.948 1.707-27.848-2.929v-13.05z" fill="#1C1E36"/><g filter="url(#filter1_ii)"><path fill-rule="evenodd" clip-rule="evenodd" d="M126.426 71.157s153.723-2.442 159.06 0c5.338 2.441 7.801 37.057 4.559 37.856-3.243.8-164.568 0-164.568 0l.949-37.856z" fill="#000" fill-opacity=".01"/></g></g><path d="M122.825 22.425a2.385 2.385 0 012.385-2.386h189.423a2.386 2.386 0 012.386 2.386V125.89H122.825V22.425z" fill="#fff" stroke="#1C1E36" stroke-width="2"/><path opacity=".365" fill-rule="evenodd" clip-rule="evenodd" d="M124.178 112.975l136.759-.432c7.064-.023 54.223 0 54.223 0v11.676H124.178v-11.244z" fill="#D8D8D8"/><path d="M16.781 125.958c-.762 0-1.447.464-1.73 1.171l-2.495 6.244a2 2 0 001.857 2.742H27.67a5.079 5.079 0 000-10.157H16.781z" fill="#F7AA37" stroke="#1C1E36" stroke-width="2"/><rect x="94.963" y="103.54" width="13.124" height="2.571" rx=".792" fill="#1C1E36" fill-opacity=".87"/><path fill-rule="evenodd" clip-rule="evenodd" d="M83.867 163.138l166.136 1.5-166.136-1.5z" fill="#D8D8D8"/><path d="M83.867 163.138l166.136 1.5" stroke="#1D3767" stroke-width="1.057"/><ellipse cx="282.989" cy="161.796" rx="23.808" ry="23.673" fill="#0F1C35"/><ellipse cx="282.989" cy="161.799" rx="14.108" ry="14.029" fill="#E7EAED"/><ellipse cx="282.641" cy="161.451" rx="3.609" ry="3.589" fill="#0F1C35" fill-opacity=".868"/><g opacity=".58"><mask id="m" fill="#fff"><ellipse cx="282.642" cy="154.274" rx="1.805" ry="1.795"/></mask><ellipse cx="282.642" cy="154.274" rx="1.805" ry="1.795" fill="#D8D8D8"/><path d="M282.584 154.274c0-.008.002-.019.007-.03a.045.045 0 01.014-.021.037.037 0 01.017-.012.051.051 0 01.02-.005v3.724a3.66 3.66 0 003.666-3.656h-3.724zm.058-.068c.003 0 .01.001.019.005a.037.037 0 01.017.012c.005.004.01.01.014.021a.076.076 0 01.007.03h-3.724a3.661 3.661 0 003.667 3.656v-3.724zm.057.068a.08.08 0 01-.007.03.051.051 0 01-.014.021.062.062 0 01-.017.012.07.07 0 01-.019.004v-3.724a3.662 3.662 0 00-3.667 3.657h3.724zm-.057.067a.068.068 0 01-.02-.004.062.062 0 01-.017-.012.051.051 0 01-.014-.021.08.08 0 01-.007-.03h3.724a3.662 3.662 0 00-3.666-3.657v3.724z" fill="#979797" mask="url(#m)"/><mask id="n" fill="#fff"><ellipse cx="289.86" cy="161.452" rx="1.805" ry="1.795"/></mask><ellipse cx="289.86" cy="161.452" rx="1.805" ry="1.795" fill="#D8D8D8"/><path d="M289.802 161.452a.08.08 0 01.007-.03.051.051 0 01.014-.021.043.043 0 01.017-.012.074.074 0 01.02-.004v3.724a3.662 3.662 0 003.666-3.657h-3.724zm.058-.067c.003 0 .011.001.019.004a.047.047 0 01.018.012.063.063 0 01.013.021.08.08 0 01.007.03h-3.724a3.662 3.662 0 003.667 3.657v-3.724zm.057.067a.08.08 0 01-.007.03.063.063 0 01-.013.021.047.047 0 01-.018.012.063.063 0 01-.019.004v-3.724a3.662 3.662 0 00-3.667 3.657h3.724zm-.057.067a.074.074 0 01-.02-.004.043.043 0 01-.017-.012.051.051 0 01-.014-.021.08.08 0 01-.007-.03h3.724a3.662 3.662 0 00-3.666-3.657v3.724z" fill="#979797" mask="url(#n)"/><mask id="o" fill="#fff"><ellipse cx="288.055" cy="166.835" rx="1.805" ry="1.795"/></mask><ellipse cx="288.055" cy="166.835" rx="1.805" ry="1.795" fill="#D8D8D8"/><path d="M287.997 166.835a.08.08 0 01.007-.03.051.051 0 01.014-.021.043.043 0 01.017-.012.074.074 0 01.02-.004v3.724a3.662 3.662 0 003.666-3.657h-3.724zm.058-.067a.07.07 0 01.019.004.047.047 0 01.018.012.063.063 0 01.013.021.08.08 0 01.007.03h-3.724a3.662 3.662 0 003.667 3.657v-3.724zm.057.067a.08.08 0 01-.007.03.063.063 0 01-.013.021c-.005.004-.01.009-.018.012a.07.07 0 01-.019.004v-3.724a3.662 3.662 0 00-3.667 3.657h3.724zm-.057.067a.074.074 0 01-.02-.004.057.057 0 01-.017-.012.051.051 0 01-.014-.021.08.08 0 01-.007-.03h3.724a3.662 3.662 0 00-3.666-3.657v3.724z" fill="#979797" mask="url(#o)"/><mask id="p" fill="#fff"><ellipse cx="282.642" cy="168.629" rx="1.805" ry="1.795"/></mask><ellipse cx="282.642" cy="168.629" rx="1.805" ry="1.795" fill="#D8D8D8"/><path d="M282.584 168.629c0-.008.002-.019.007-.03a.056.056 0 01.031-.033.051.051 0 01.02-.005v3.724a3.66 3.66 0 003.666-3.656h-3.724zm.058-.068c.003 0 .01.001.019.005a.056.056 0 01.031.033.076.076 0 01.007.03h-3.724a3.661 3.661 0 003.667 3.656v-3.724zm.057.068a.08.08 0 01-.007.03.051.051 0 01-.014.021.062.062 0 01-.017.012.07.07 0 01-.019.004v-3.724a3.662 3.662 0 00-3.667 3.657h3.724zm-.057.067a.068.068 0 01-.02-.004.062.062 0 01-.017-.012.051.051 0 01-.014-.021.08.08 0 01-.007-.03h3.724a3.662 3.662 0 00-3.666-3.657v3.724z" fill="#979797" mask="url(#p)"/><mask id="q" fill="#fff"><ellipse cx="277.227" cy="166.835" rx="1.805" ry="1.795"/></mask><ellipse cx="277.227" cy="166.835" rx="1.805" ry="1.795" fill="#D8D8D8"/><path d="M277.17 166.835a.08.08 0 01.007-.03.063.063 0 01.013-.021.047.047 0 01.018-.012.07.07 0 01.019-.004v3.724a3.662 3.662 0 003.667-3.657h-3.724zm.057-.067c.003 0 .011.001.02.004a.043.043 0 01.017.012c.005.004.01.011.014.021a.08.08 0 01.007.03h-3.724a3.662 3.662 0 003.666 3.657v-3.724zm.058.067a.08.08 0 01-.007.03.051.051 0 01-.014.021.057.057 0 01-.017.012.074.074 0 01-.02.004v-3.724a3.662 3.662 0 00-3.666 3.657h3.724zm-.058.067a.07.07 0 01-.019-.004c-.008-.003-.013-.008-.018-.012a.063.063 0 01-.013-.021.08.08 0 01-.007-.03h3.724a3.662 3.662 0 00-3.667-3.657v3.724z" fill="#979797" mask="url(#q)"/><mask id="r" fill="#fff"><ellipse cx="277.227" cy="156.067" rx="1.805" ry="1.795"/></mask><ellipse cx="277.227" cy="156.067" rx="1.805" ry="1.795" fill="#D8D8D8"/><path d="M277.17 156.067a.08.08 0 01.007-.03.063.063 0 01.013-.021c.005-.004.01-.008.018-.012a.07.07 0 01.019-.004v3.724a3.662 3.662 0 003.667-3.657h-3.724zm.057-.067c.003 0 .011.001.02.004a.083.083 0 01.017.012c.005.004.01.011.014.021a.08.08 0 01.007.03h-3.724a3.662 3.662 0 003.666 3.657V156zm.058.067a.076.076 0 01-.007.03.056.056 0 01-.031.033.055.055 0 01-.02.005v-3.724a3.66 3.66 0 00-3.666 3.656h3.724zm-.058.068a.052.052 0 01-.019-.005c-.008-.003-.013-.007-.018-.011-.004-.005-.009-.011-.013-.022a.076.076 0 01-.007-.03h3.724a3.661 3.661 0 00-3.667-3.656v3.724z" fill="#979797" mask="url(#r)"/><mask id="s" fill="#fff"><ellipse cx="275.423" cy="161.452" rx="1.805" ry="1.795"/></mask><ellipse cx="275.423" cy="161.452" rx="1.805" ry="1.795" fill="#D8D8D8"/><path d="M275.365 161.452a.08.08 0 01.007-.03.051.051 0 01.014-.021.043.043 0 01.017-.012.074.074 0 01.02-.004v3.724a3.662 3.662 0 003.666-3.657h-3.724zm.058-.067c.003 0 .011.001.019.004a.047.047 0 01.018.012.063.063 0 01.013.021.08.08 0 01.007.03h-3.724a3.662 3.662 0 003.667 3.657v-3.724zm.057.067a.08.08 0 01-.007.03.063.063 0 01-.013.021.047.047 0 01-.018.012.063.063 0 01-.019.004v-3.724a3.662 3.662 0 00-3.667 3.657h3.724zm-.057.067a.074.074 0 01-.02-.004.043.043 0 01-.017-.012.051.051 0 01-.014-.021.08.08 0 01-.007-.03h3.724a3.662 3.662 0 00-3.666-3.657v3.724z" fill="#979797" mask="url(#s)"/><mask id="t" fill="#fff"><ellipse cx="288.055" cy="156.067" rx="1.805" ry="1.795"/></mask><ellipse cx="288.055" cy="156.067" rx="1.805" ry="1.795" fill="#D8D8D8"/><path d="M287.997 156.067a.08.08 0 01.007-.03.051.051 0 01.014-.021.083.083 0 01.017-.012.074.074 0 01.02-.004v3.724a3.662 3.662 0 003.666-3.657h-3.724zm.058-.067a.07.07 0 01.019.004.093.093 0 01.018.012.063.063 0 01.013.021.08.08 0 01.007.03h-3.724a3.662 3.662 0 003.667 3.657V156zm.057.067a.076.076 0 01-.007.03c-.004.011-.009.017-.013.022-.005.004-.01.008-.018.011a.052.052 0 01-.019.005v-3.724a3.661 3.661 0 00-3.667 3.656h3.724zm-.057.068a.055.055 0 01-.02-.005.056.056 0 01-.031-.033.076.076 0 01-.007-.03h3.724a3.66 3.66 0 00-3.666-3.656v3.724z" fill="#979797" mask="url(#t)"/></g><path fill="#1C1E36" d="M121.01 64.121h3.145v97.731h-3.145z"/><path fill-rule="evenodd" clip-rule="evenodd" d="M60.757 100.338c4.169-6.793 20.11-28.364 35.042-30.553l17.396-.254-.449 26.37s-10.23.105-17.783 2.577c-7.553 2.472-8.837 5.14-8.837 5.14s-27.957.938-25.369-3.28z" fill="#505C73" stroke="#1C1E36" stroke-width="1.693"/><mask id="u" maskUnits="userSpaceOnUse" x="59" y="68" width="56" height="37"><path fill-rule="evenodd" clip-rule="evenodd" d="M60.757 100.338c4.169-6.793 20.11-28.364 35.042-30.553l17.396-.254-.449 26.37s-10.23.105-17.783 2.577c-7.553 2.472-8.837 5.14-8.837 5.14s-27.957.938-25.369-3.28z" fill="#fff" stroke="#fff" stroke-width="1.839"/></mask><path fill-rule="evenodd" clip-rule="evenodd" d="M59.14 88.194c.373-2.992 1.392-2.63 1.902-2.532 1.639.315 4.793 1.326 6.07 1.745.346.114.606.4.68.757.278 1.33.922 4.77.922 8.096 0 3.236-.61 6.469-.898 7.82a1.034 1.034 0 01-.811.792c-1.319.273-4.289.932-5.963 1.645-.418.178-1.562 1.329-1.903-2.729-.341-4.06-.373-12.602 0-15.594z" fill="#1C1E36"/><path fill-rule="evenodd" clip-rule="evenodd" d="M317.189 133.657l-5.427-.75a3.699 3.699 0 01-3.192-3.663v-11.741a3.698 3.698 0 013.698-3.698h4.921v19.852z" fill="#CE3308" stroke="#000" stroke-width="1.907"/></g><path d="M175.169 109.401l.044-.028.039-.033.628-.529 1.762 7.281-3.172.654h-3.336l-2.498-1.47 1.225-6.419.574.483.039.033.043.028c1.457.923 3.196.923 4.652 0z" fill="#EBB47B" stroke="#1C1E36" stroke-width="1.523"/><path d="M181.018 99.453a.259.259 0 00-.134-.068l-.005.047.139.021z" fill="#D7A571"/><path d="M170.316 152.131l-3.282 34.277a5.857 5.857 0 00-1.624-.474c-.828-.12-1.786-.084-2.696.261-.017-4.506-.051-14.258-.066-23.321-.008-5.036-.01-9.857.001-13.449.005-1.796.013-3.282.025-4.333.005-.39.01-.719.016-.98h19.981l.287 10.58-.029.075a.962.962 0 00.034.719c0 10.487-.05 24.844-.071 30.658-.899-.308-1.834-.325-2.64-.197a5.79 5.79 0 00-1.6.491l-.074.037-3.289-34.344-.066-.689H170.382l-.066.689zm-7.604-8.657c.002-.02.003-.016 0 .003v-.003z" fill="#19263C" stroke="#1C1E36" stroke-width="1.523"/><path d="M161.957 185.879c-.978.712-1.707 1.988-1.779 4.12h8.827c-.074-.692-.673-2.795-1.346-3.789a2.305 2.305 0 00-.085-.12c-.573-.759-3.616-1.668-5.617-.211zM178.174 186.09c-.07.093-.139.198-.207.314-.622 1.052-1.154 2.945-1.223 3.595h8.826c-.075-2.235-.872-3.529-1.921-4.219-2-1.315-4.915-.431-5.475.31z" fill="#1C1E36"/><path d="M182.745 125.376c.016 5.12-1.043 9.979.694 15.519l.516 11.522s-.198.245.006.347c.122.061.389.071.931-.054 1.444-.334.873-2.28.873-2.28l.75-11.442c.372-4.536.69-9.075-.24-13.674l-.008-.41-.002-.12-3.52.592zM151.557 120.201c1.23 0 5.484-3.487 5.484-3.487l2.864 4.821s-7.557 4.93-9.584 4.477c-2.027-.452-9.239-13.718-9.239-13.718s-2.276-1.842-2.718-4.187c-.161-.855 1.593-2.114 2.718-1.941 1.125.173 1.745 2.771 1.947 2.41.177-.315-.46-2.36.424-2.41.847-.048.653 3.113.773 3.191.22.142 5.867 10.844 7.331 10.844z" fill="#EBB47B" stroke="#1C1E36" stroke-width="1.523"/><path d="M187.556 127.292l-1.986-11.06s-3.604-3.867-4.286-3.879a5.594 5.594 0 00-.801-.059h-3.051l-2.149 2.889a.747.747 0 01-.313.246l-1.875.791-.008.005a.03.03 0 01-.02.007h-.362a.766.766 0 01-.247-.041l-2.173-.75a.752.752 0 01-.41-.338l-1.619-2.809h-3.051c-.277 0-.55.022-.819.06l-7.344 4.361v1.594l.749 4.481 5.241-1.966-.308 6.468-.761 16.06H183.412l-.422-15.529 3.531-.531v.121l1.035-.121z" fill="#F68916" stroke="#1C1E36" stroke-width="2"/><path fill-rule="evenodd" clip-rule="evenodd" d="M170.921 110.91a3.85 3.85 0 003.652 0l1.212-.86 1.715-1.879c.673-.359 1.097-1.094 1.097-1.897v-1.221c.207-.241 1.423-1.724 1.423-3.22 0-1.337-.678-1.309-1.165-1.288-.095.004-.183.008-.258.001v-4.268c-1.097-1.832-2.273-3.154-6.21-3.178-3.624-.02-4.299 1.137-5.239 2.75-.081.14-.164.283-.252.428v4.009a4.76 4.76 0 01-.219.006c-.493.005-1.17.012-1.17.801 0 .928.81 4.453 1.389 4.381v.799c0 .803.425 1.538 1.097 1.897l1.716 1.879 1.212.86z" fill="#EBB47B"/><path d="M174.573 110.91l.434.811.051-.027.047-.034-.532-.75zm-3.652 0l-.533.75.048.034.051.027.434-.811zm4.864-.86l.532.75.081-.057.066-.073-.679-.62zm1.715-1.879l-.433-.811-.139.074-.107.117.679.62zm1.097-3.118l-.698-.598-.221.258v.34h.919zm.258-4.508l-.039-.919.039.919zm-.258.001h-.919v.838l.834.077.085-.915zm0-4.268h.92v-.254l-.131-.218-.789.472zm-6.21-3.178l.005-.92-.005.92zm-5.239 2.75l.795.463-.795-.463zm-.252.428l-.789-.472-.13.218v.254h.919zm0 4.009l.055.918.865-.051v-.867h-.92zm-.219.006l-.01-.92.01.92zm.219 5.182h.92v-1.042l-1.034.129.114.913zm1.097 2.696l.68-.62-.107-.117-.139-.074-.434.811zm1.716 1.879l-.679.62.066.073.081.057.532-.75zm4.431.049c-.879.47-1.907.47-2.786 0l-.867 1.622a4.77 4.77 0 004.52 0l-.867-1.622zm1.113-.799l-1.212.86 1.064 1.5 1.212-.86-1.064-1.5zm1.568-1.749l-1.715 1.879 1.358 1.24 1.715-1.879-1.358-1.24zm.857-1.277c0 .487-.258.897-.611 1.086l.867 1.622c.991-.53 1.583-1.588 1.583-2.708h-1.839zm0-1.221v1.221h1.839v-1.221h-1.839zm1.422-3.22c0 .519-.218 1.1-.516 1.631a6.507 6.507 0 01-.685.991l1.396 1.197c.126-.146.523-.628.893-1.288.362-.645.752-1.553.752-2.531h-1.84zm-.206-.369c.133-.006.194-.007.243-.001.039.004.011.008-.036-.024-.056-.039-.065-.076-.053-.044.018.046.052.174.052.438h1.84c0-.79-.2-1.501-.801-1.912-.524-.36-1.142-.303-1.323-.295l.078 1.838zm-.382-.003c.149.014.306.006.382.003l-.078-1.838-.11.004h-.024l-.17 1.831zm-.834-5.183v4.268h1.839v-4.268h-1.839zm-5.296-2.258c1.873.011 2.967.332 3.697.776.727.444 1.201 1.073 1.729 1.955l1.578-.945c-.569-.95-1.231-1.898-2.35-2.58-1.117-.68-2.58-1.033-4.644-1.045l-.01 1.84zm-4.439 2.293c.487-.835.793-1.332 1.325-1.683.521-.345 1.384-.62 3.114-.61l.01-1.84c-1.894-.01-3.181.283-4.138.915-.947.626-1.447 1.515-1.9 2.292l1.589.926zm-.258.438c.091-.151.177-.299.258-.438l-1.589-.926c-.082.14-.163.279-.247.419l1.578.945zm.131 3.536v-4.009h-1.839v4.009h1.839zm-1.129.925c.073-.001.171-.001.264-.007l-.109-1.836c-.039.002-.09.003-.175.004l.02 1.839zm-.26-.118c0-.066.013-.032-.031.036a.303.303 0 01-.12.112c-.006.002.021-.01.105-.018.083-.009.176-.011.306-.012l-.02-1.839c-.198.002-.693-.007-1.129.184-.247.108-.505.29-.693.585a1.746 1.746 0 00-.257.952h1.839zm.355 3.468a.754.754 0 01.467.091.456.456 0 01.122.097s-.039-.051-.104-.19a7.965 7.965 0 01-.397-1.147c-.27-.974-.443-1.987-.443-2.319h-1.839c0 .595.232 1.809.51 2.812.143.513.315 1.033.505 1.437.092.195.211.416.367.598.116.136.475.517 1.041.446l-.229-1.825zm1.034 1.712v-.799h-1.839v.799h1.839zm.611 1.086c-.354-.189-.611-.599-.611-1.086h-1.839c0 1.12.592 2.179 1.583 2.708l.867-1.622zm1.961 2.07l-1.715-1.879-1.359 1.24 1.716 1.879 1.358-1.24zm1.065.73l-1.212-.86-1.064 1.5 1.211.86 1.065-1.5z" fill="#1C1E36"/><path d="M173.711 94.837l.112-.029h.116c1.788 0 3.061-.11 3.867-.488.369-.174.603-.388.753-.657.144-.256.248-.63.243-1.196-.034-.049-.112-.13-.294-.224-.283-.148-.724-.277-1.327-.345-1.199-.136-2.838-.01-4.614.445-1.776.454-3.272 1.13-4.256 1.825-.495.35-.819.674-.995.94-.144.215-.153.332-.15.374.025.02.086.057.216.098.296.093.77.142 1.433.115 1.309-.054 3.059-.388 4.896-.858zm-6.56.628c-.001 0 .001.005.01.012-.005-.009-.009-.012-.01-.012z" fill="#E7CA76" stroke="#1C1E36" stroke-width="1.839"/><path d="M406 111.022a3.022 3.022 0 013.022-3.022h37.956a3.022 3.022 0 013.022 3.022v49.909a3.069 3.069 0 01-3.069 3.069h-37.862a3.069 3.069 0 01-3.069-3.069v-49.909z" fill="#fff" stroke="#1C1E36" stroke-width="2"/><path fill="#D9E2F3" d="M409.911 111.965h6.906v2.743h-6.906z"/><ellipse cx="428.211" cy="113.335" rx="2.417" ry="2.4" fill="#D9E2F3"/><ellipse cx="429.074" cy="137.532" rx="11.567" ry="11.487" fill="#505C73"/><path fill-rule="evenodd" clip-rule="evenodd" d="M417.507 140.153s1.841-2.887 7.732-3.011c2.531-.054 5.86 2.843 9.825 3.489 2.187.356 7.134-1.214 7.134-1.214l-4.146 8.328s-6.694 2.377-10.437 2.028c-3.743-.348-10.108-5.143-10.108-5.143v-4.477z" fill="#1C1E36" fill-opacity=".5"/><path fill-rule="evenodd" clip-rule="evenodd" d="M443.749 137.36c0 8.143-6.647 14.745-14.847 14.745s-14.848-6.602-14.848-14.745c0-8.143 6.648-14.744 14.848-14.744 8.2 0 14.847 6.601 14.847 14.744zm-4.888 4.759a11.057 11.057 0 01-9.959 6.214c-6.103 0-11.05-4.912-11.05-10.972s4.947-10.973 11.05-10.973c4.284 0 7.999 2.421 9.832 5.961l-2.186 1.296a1.511 1.511 0 00-.741 1.3v4.852c0 .6.356 1.144.907 1.384l2.147.938z" fill="#D3DBEC"/><path d="M438.861 142.119l.662.321.334-.689-.702-.306-.294.674zm-.127-9.77l.375.633.598-.354-.32-.617-.653.338zm-2.186 1.296l-.375-.633.375.633zm.166 7.536l.294-.674-.294.674zm-7.812 11.66c8.601 0 15.583-6.926 15.583-15.481h-1.472c0 7.732-6.313 14.009-14.111 14.009v1.472zm-15.583-15.481c0 8.555 6.981 15.481 15.583 15.481v-1.472c-7.799 0-14.112-6.277-14.112-14.009h-1.471zm15.583-15.48c-8.602 0-15.583 6.926-15.583 15.48h1.471c0-7.732 6.313-14.009 14.112-14.009v-1.471zm15.583 15.48c0-8.554-6.982-15.48-15.583-15.48v1.471c7.798 0 14.111 6.277 14.111 14.009h1.472zm-15.583 11.709c4.676 0 8.717-2.706 10.621-6.629l-1.324-.642a10.322 10.322 0 01-9.297 5.8v1.471zm-11.785-11.708c0 6.471 5.281 11.708 11.785 11.708v-1.471c-5.701 0-10.314-4.588-10.314-10.237h-1.471zm11.785-11.709c-6.504 0-11.785 5.238-11.785 11.709h1.471c0-5.649 4.613-10.237 10.314-10.237v-1.472zm10.485 6.359a11.792 11.792 0 00-10.485-6.359v1.472c4 0 7.468 2.26 9.179 5.564l1.306-.677zm-1.028-.294l-2.186 1.295.75 1.266 2.186-1.296-.75-1.265zm-2.186 1.295a2.245 2.245 0 00-1.101 1.933h1.471c0-.274.145-.528.38-.667l-.75-1.266zm-1.101 1.933v4.852h1.471v-4.852h-1.471zm0 4.852c0 .893.529 1.701 1.347 2.059l.589-1.349a.775.775 0 01-.465-.71h-1.471zm1.347 2.059l2.147.937.589-1.348-2.147-.938-.589 1.349z" fill="#1C1E36"/><path fill-rule="evenodd" clip-rule="evenodd" d="M407 155.5h42-42z" fill="#E0E9FA"/><path d="M407 155.5h42" stroke="#E0E9FA" stroke-width=".765"/><path fill-rule="evenodd" clip-rule="evenodd" d="M420.442 109.028v9.795-9.795z" fill="#E0E9FA"/><path d="M420.442 109.028v9.795" stroke="#E0E9FA"/><path fill-rule="evenodd" clip-rule="evenodd" d="M407 118.5h42-42z" fill="#E0E9FA"/><path d="M407 118.5h42" stroke="#E0E9FA"/><path fill-rule="evenodd" clip-rule="evenodd" d="M396.88 177.608h26.302l2.958-9.556h-30.974l1.714 9.556z" fill="#FF992E"/><path fill-rule="evenodd" clip-rule="evenodd" d="M369.731 116.264c-1.886.699 12.04 61.343 12.04 61.343l41.41.093 2.958-9.648-.804-13.239s1.515-4.702 1.515-6.356-1.515-2.403-1.515-2.403h-18.014l-2.009-8.476c1.163-8.167 6.079-18.043-3.535-22.044-10.644-.422-30.159.031-32.046.73z" fill="#D87915" stroke="#1C1E36" stroke-width="1.839"/><path fill-rule="evenodd" clip-rule="evenodd" d="M398.394 177.968h4.067s1.272 6.217-2.033 6.133c-3.305-.083-2.034-6.133-2.034-6.133zM419.212 177.968h4.067s1.272 6.217-2.033 6.133c-3.306-.083-2.034-6.133-2.034-6.133z" fill="#774836" stroke="#1C1E36" stroke-width="1.839"/><ellipse cx="385.101" cy="136.732" rx="1.232" ry="1.227" fill="#000" fill-opacity=".337"/><ellipse cx="389.414" cy="136.732" rx="1.232" ry="1.227" fill="#000" fill-opacity=".337"/><ellipse cx="394.22" cy="136.732" rx="1.232" ry="1.227" fill="#000" fill-opacity=".337"/><ellipse cx="398.534" cy="136.732" rx="1.232" ry="1.227" fill="#000" fill-opacity=".337"/><path fill-rule="evenodd" clip-rule="evenodd" d="M424.539 160.631l3.915 1.123-29.92-.409c2.034-1.984 18.052-1.689 26.005-.714z" fill="#EB7F0D"/><path fill-rule="evenodd" clip-rule="evenodd" d="M382.513 177.578h4.067s1.271 6.217-2.034 6.133c-3.305-.084-2.033-6.133-2.033-6.133z" fill="#774836" stroke="#1C1E36" stroke-width="1.839"/><path fill-rule="evenodd" clip-rule="evenodd" d="M369.264 116.425c1.455-.58 3.203-.98 5.078 0 5.118 3.798 7.284 10.101 4.192 20.866l1.833 9.622h15.466c1.943 4.911 2.569 9.868 2.701 14.841v15.824l-16.761.03s-13.964-60.602-12.509-61.183z" fill="#F68916" stroke="#1C1E36" stroke-width="2"/><path opacity=".325" d="M398.18 116.96c4.421 13.016 5.554 30.486 9.948 42.399" stroke="#1C1E36" stroke-opacity=".58" stroke-width="1.265"/><path fill-rule="evenodd" clip-rule="evenodd" d="M425.476 168.558a2.996 2.996 0 002.996-2.996v-2.167a2.995 2.995 0 00-2.996-2.995h-23.289a2.996 2.996 0 00-2.985 3.249l.184 2.167a2.996 2.996 0 002.985 2.742h23.105z" fill="#F68916" stroke="#1C1E36" stroke-width="1.839"/><defs><filter id="filter0_d" x=".818" y="13.961" width="324.466" height="176.587" filterUnits="userSpaceOnUse" color-interpolation-filters="sRGB"><feFlood flood-opacity="0" result="BackgroundImageFix"/><feColorMatrix in="SourceAlpha" values="0 0 0 0 0 0 0 0 0 0 0 0 0 0 0 0 0 0 127 0"/><feOffset/><feGaussianBlur stdDeviation="2.539"/><feColorMatrix values="0 0 0 0 0 0 0 0 0 0 0 0 0 0 0 0 0 0 0.12 0"/><feBlend in2="BackgroundImageFix" result="effect1_dropShadow"/><feBlend in="SourceGraphic" in2="effect1_dropShadow" result="shape"/></filter><filter id="filter1_ii" x="125.477" y="70.071" width="166.023" height="39.297" filterUnits="userSpaceOnUse" color-interpolation-filters="sRGB"><feFlood flood-opacity="0" result="BackgroundImageFix"/><feBlend in="SourceGraphic" in2="BackgroundImageFix" result="shape"/><feColorMatrix in="SourceAlpha" values="0 0 0 0 0 0 0 0 0 0 0 0 0 0 0 0 0 0 127 0" result="hardAlpha"/><feOffset dy="3.386"/><feComposite in2="hardAlpha" operator="arithmetic" k2="-1" k3="1"/><feColorMatrix values="0 0 0 0 0 0 0 0 0 0 0 0 0 0 0 0 0 0 0.0305398 0"/><feBlend in2="shape" result="effect1_innerShadow"/><feColorMatrix in="SourceAlpha" values="0 0 0 0 0 0 0 0 0 0 0 0 0 0 0 0 0 0 127 0" result="hardAlpha"/><feOffset dy="-1.693"/><feComposite in2="hardAlpha" operator="arithmetic" k2="-1" k3="1"/><feColorMatrix values="0 0 0 0 0 0 0 0 0 0 0 0 0 0 0 0 0 0 0.06 0"/><feBlend in2="effect1_innerShadow" result="effect2_innerShadow"/></filter></defs></svg>
